<svg width="40" height="40" viewBox="0 0 40 40" fill="none" xmlns="http://www.w3.org/2000/svg">
<rect width="40" height="40" rx="8" fill="#F3F4F6"/>
<g clip-path="url(#clip0_1089_1104)">
<path d="M17.6743 20.8242L10.3864 28.1121C10.035 28.4636 9.46511 28.4636 9.11366 28.1121L8.26361 27.2621C7.91272 26.9112 7.91204 26.3425 8.26211 25.9908L14.0379 20.1878L8.26214 14.3849C7.91208 14.0332 7.91276 13.4645 8.26364 13.1136L9.11366 12.2636C9.46515 11.9121 10.035 11.9121 10.3864 12.2636L17.6743 19.5515C18.0258 19.9029 18.0258 20.4728 17.6743 20.8242ZM32.0001 27.6878V26.4878C32.0001 25.9908 31.5971 25.5878 31.1001 25.5878H19.7C19.203 25.5878 18.8 25.9908 18.8 26.4878V27.6878C18.8 28.1849 19.203 28.5878 19.7 28.5878H31.1001C31.5971 28.5878 32.0001 28.1849 32.0001 27.6878Z" fill="black"/>
</g>
<defs>
<clipPath id="clip0_1089_1104">
<rect width="24" height="24" fill="white" transform="translate(8 8)"/>
</clipPath>
</defs>
</svg>
