<svg width="40" height="40" viewBox="0 0 40 40" fill="none" xmlns="http://www.w3.org/2000/svg">
<rect width="40" height="40" rx="8" fill="#F3F4F6"/>
<path d="M10.771 20.2181C10.8959 19.8272 11.0445 19.0304 11.3909 18.33C13.0764 14.9286 15.6838 12.4547 19.1656 10.9518C19.8375 10.6622 20.6373 10.5695 21.3792 10.5657C22.3067 10.561 22.9285 11.2064 23.0099 12.1424C23.0525 12.6298 23.0468 13.1712 22.8793 13.6198C21.2297 18.0319 18.117 20.9866 13.7408 22.6466C13.5705 22.7109 13.3802 22.728 13.1966 22.7526C11.707 22.957 10.7483 22.1128 10.771 20.2181V20.2181ZM22.2234 16.9483C24.6424 16.7789 27.0207 16.6123 29.5126 16.4372C29.3309 16.264 29.2287 16.1504 29.1104 16.0558C26.9412 14.3163 24.7664 12.5844 22.6058 10.8345C22.3919 10.6613 22.2594 10.3887 21.9736 10.0102C22.902 10.0102 23.6525 10.0017 24.403 10.0121C25.3087 10.0253 26.2362 9.9373 27.1163 10.1001C29.0195 10.4521 30.035 11.6796 29.9991 13.6141C29.966 15.4274 29.7786 17.2379 29.6442 19.0483C29.4388 21.8203 29.223 24.5924 29.0091 27.3634C28.9722 27.8414 28.9277 28.3193 28.8795 28.8871C27.8735 27.9909 26.911 27.1344 25.9504 26.277C25.8264 26.1662 25.7232 26.0233 25.586 25.9353C24.4115 25.1877 23.9213 24.0728 23.6544 22.7403C23.3061 20.9989 22.796 19.2897 22.3569 17.5663C22.3077 17.3732 22.2717 17.1763 22.2225 16.9464L22.2234 16.9483ZM13.1531 27.5499C13.6708 27.478 14.1553 27.4477 14.6172 27.3284C14.7989 27.282 15.0099 27.0606 15.0686 26.8751C15.504 25.4981 15.9033 24.1088 16.315 22.7251C16.351 22.604 16.4011 22.4866 16.4674 22.3059C18.9867 23.1122 21.4862 23.9128 24.0594 24.7362C22.7203 26.0877 21.2959 27.2205 19.7041 28.2389C22.5405 28.4556 25.3768 28.6723 28.2132 28.889C28.2132 28.925 28.2132 28.9619 28.2142 28.9979C27.6028 29.0414 26.9914 29.0868 26.38 29.1275C22.7723 29.3651 19.1656 29.6017 15.5579 29.8373C14.9844 29.8752 14.4099 29.9377 13.8373 29.9272C11.4089 29.8828 10.0328 28.5521 10.0016 26.1161C9.98358 24.7476 10.1246 23.3772 10.2117 22.0087C10.2183 21.9055 10.3659 21.8109 10.4483 21.7125C10.5704 21.8213 10.7483 21.9065 10.8079 22.0428C11.5328 23.7236 12.2408 25.412 12.9534 27.0975C13.0111 27.2328 13.0726 27.3663 13.1531 27.5499V27.5499Z" fill="#EB5757"/>
</svg>
